<svg xmlns="http://www.w3.org/2000/svg" width="162.691" height="34.703" viewBox="0 0 162.691 34.703"><g fill="#231F20"><path d="M15.65 6.107v3.541c0 .383-.012.383-.035.812.186-.418.37-.662.555-.916l2.209-2.925v-.512h.881v5.901h-.881V8.525c0-.207.014-.563.048-.843-.048.105-.129.302-.532.824l-2.244 2.935v.567h-.878V6.107M20.336 7.613a1.923 1.923 0 0 1 1.087-1.353c.21-.104.647-.267 1.378-.267.497 0 1.087.068 1.503.323.555.336.729.846.729 1.263a1.3 1.3 0 0 1-.382.937 1.388 1.388 0 0 1-.834.369v.023c.349.021.753.185 1.008.451.221.231.369.577.369.993 0 .683-.393 1.135-.74 1.366-.543.369-1.249.404-1.733.404-.476 0-1.297-.024-1.887-.546a2.09 2.09 0 0 1-.636-1.153l.856-.175c.068.358.241.589.336.682.219.233.614.473 1.283.473.347 0 .798-.067 1.074-.252a.892.892 0 0 0 .43-.787c0-.369-.141-.603-.279-.729-.323-.302-.786-.334-1.167-.334h-.66v-.716h.66c.243 0 .601-.045.82-.151.429-.195.511-.531.511-.832a.773.773 0 0 0-.325-.635c-.23-.185-.636-.256-1.029-.256-.336 0-.751.071-1.099.357a1.306 1.306 0 0 0-.451.766M30.56 6.107v5.185h.602v2.3h-.81v-1.583h-3.92v1.583h-.811v-2.3h.44a5.36 5.36 0 0 0 .555-1.052c.429-1.089.475-2.246.509-3.599l.012-.534m.728 1.034c-.035.865-.138 2.301-.52 3.319-.117.299-.301.692-.37.832h2.705V6.828h-1.805l-.01.313zM31.838 7.603c.255-1.259 1.214-1.608 2.497-1.608.395 0 1.158.012 1.678.429.637.509.647 1.317.647 2.083v2.264c0 .325.035.719.151 1.239h-.926a9.345 9.345 0 0 1-.105-1.1c-.16.335-.67 1.215-2.057 1.215-.753 0-1.228-.253-1.517-.52a1.654 1.654 0 0 1-.531-1.251c0-.796.453-1.259.798-1.488.717-.488 1.643-.502 2.545-.502h.762v-.24c0-.315-.021-.707-.229-.984-.302-.404-.811-.429-1.227-.429-.486 0-1.503.071-1.643 1.029m2.349 1.343c-.927 0-1.458.116-1.782.288a1.08 1.08 0 0 0-.602.982c0 .232.094.567.43.786.162.117.439.221.844.221a1.82 1.82 0 0 0 1.399-.661c.301-.368.461-.91.461-1.328v-.288h-.75zM41.783 6.107v.721h-1.85v5.181h-.879V6.828h-1.851v-.721M47.114 10.399a2.39 2.39 0 0 1-.96 1.284c-.462.312-.947.44-1.515.44-.832 0-1.492-.277-2-.857-.521-.59-.717-1.34-.717-2.162 0-1.571.879-3.11 2.74-3.11 2.198 0 2.556 2.035 2.556 2.985v.207h-4.28a2.9 2.9 0 0 0 .198 1.145c.289.705.82 1.029 1.538 1.029.636 0 1.018-.278 1.226-.509.163-.175.289-.416.359-.625m-.058-1.756c-.012-.359-.104-.788-.277-1.076a1.4 1.4 0 0 0-1.249-.683c-.577 0-1.019.277-1.283.602a2.008 2.008 0 0 0-.405 1.157h3.214zM52.353 6.107v5.901h-.878v-5.18h-1.897c-.092 2.636-.195 3.422-.369 3.941-.394 1.147-1.308 1.239-1.713 1.239h-.046v-.765h.092c.268-.012.672-.208.893-.61.173-.314.3-.891.358-3.864l.012-.662M54.668 6.107v2.326h1.644c.46 0 1.04.048 1.456.452.197.197.474.589.474 1.295 0 .568-.161 1.052-.591 1.424-.404.357-.843.404-1.188.404H53.79V6.107m.878 5.185h1.377c.255 0 .578 0 .867-.245.209-.184.358-.486.358-.877 0-.463-.208-.706-.392-.834-.222-.137-.567-.185-.8-.185h-1.411v2.141zM62.827 8.17a2.297 2.297 0 0 0-.323-.894c-.161-.229-.497-.52-1.075-.52-.509 0-.879.243-1.134.66-.322.521-.382 1.19-.382 1.666 0 1.109.312 1.594.382 1.687.196.289.543.589 1.121.589.44 0 .766-.148 1.03-.482.208-.268.334-.624.381-.959l.833.148c-.082.568-.334 1.087-.672 1.434-.416.429-.96.625-1.596.625-.739 0-1.271-.267-1.618-.578-.578-.533-.879-1.48-.879-2.476 0-.785.174-1.503.614-2.116.403-.554.992-.96 1.941-.96.647 0 1.191.195 1.608.671.334.383.531.926.601 1.353M68.459 6.107v.721h-1.851v5.181h-.878V6.828h-1.851v-.721M71.762 6.107c.474 0 .982.026 1.376.256.22.128.625.451.625 1.135 0 .393-.116.729-.395.983-.093.079-.346.301-.762.37v.022c.427.034.854.221 1.098.462.115.115.394.44.394 1.008 0 .541-.231 1.004-.613 1.306-.451.347-.959.359-1.434.359H69.15V6.107m.876 2.465h1.642c.278 0 .637-.021.893-.299.148-.16.229-.407.229-.671a.684.684 0 0 0-.255-.565c-.242-.209-.52-.209-.787-.209h-1.722v1.744zm0 2.72h1.853c.426 0 .739-.117.924-.29.184-.172.276-.451.276-.715a.914.914 0 0 0-.356-.754c-.291-.22-.707-.243-.926-.243h-1.771v2.002zM77.479 5.994c1.527 0 2.66 1.134 2.66 3.066 0 1.931-1.133 3.063-2.66 3.063-1.526 0-2.658-1.133-2.658-3.063 0-1.932 1.132-3.066 2.658-3.066m1.644 3.067c0-1.933-.937-2.304-1.644-2.304-.705 0-1.642.371-1.642 2.304 0 1.931.937 2.298 1.642 2.298.708-.001 1.644-.368 1.644-2.298M17.297 17.844l2.046 7.391 2.092-7.391h2.434v10.248h-1.613v-8.739l-2.435 8.739h-1.223l-2.392-8.755v8.755h-1.435V17.844M29.702 17.844l2.749 10.246h-1.732l-.643-2.57h-2.988l-.625 2.57h-1.631l2.958-10.246m.792 1.657l-1.148 4.675h2.313l-1.165-4.675zM35.17 17.844v4.254h3.018v-4.254h1.703v10.248h-1.703v-4.589H35.17v4.589h-1.702V17.844M43.356 17.844v4.254h3.016v-4.254h1.704v10.248h-1.704v-4.589h-3.016v4.589h-1.702V17.844M51.56 26.163v1.839l-1.135 2.254h-.733l.942-2.166h-.791v-1.927M56.637 17.844v6.077c0 .448-.075.733-.12 1.24.314-.775.375-.896.403-.955l2.929-5.647v-.715h1.703v10.248h-1.703v-6.114c0-.266.044-.417.12-1.328-.329.717-.181.479-.479 1.048l-2.854 5.557v.838h-1.703V17.844M66.451 17.844c.792 0 1.583 0 2.182.373.582.373 1.045 1.136 1.045 2.194 0 .866-.27 1.344-.479 1.598-.255.3-.643.537-1.045.674.479.118.852.372 1.119.643.585.582.717 1.269.717 1.882 0 1.389-.672 2.076-1.165 2.39-.715.463-1.538.493-2.329.493h-3.182V17.844m2.779 4.226c.403 0 1.03-.046 1.329-.257.357-.253.523-.85.523-1.238 0-.417-.166-.896-.478-1.134-.328-.256-.883-.256-1.21-.256h-1.241v2.885h1.077zm.283 4.676c.284 0 .808-.03 1.225-.299.583-.373.657-.928.657-1.36 0-.255-.045-.955-.598-1.36-.402-.297-.926-.312-1.402-.312h-1.241v3.331h1.359zM75.413 17.844l2.749 10.246h-1.733l-.643-2.57h-2.987l-.626 2.57h-1.63l2.958-10.246m.791 1.657l-1.148 4.675h2.313l-1.165-4.675zM80.881 17.844v4.254h3.016v-4.254h1.706v10.248h-1.706v-4.589h-3.016v4.589h-1.703V17.844M93.125 18.634c1.15 1.224 1.24 3.45 1.24 4.332 0 .852-.09 3.137-1.24 4.333-.447.464-1.256.982-2.436.982-1.029 0-1.881-.4-2.434-.969-.374-.388-1.255-1.509-1.255-4.331 0-.987.118-3.213 1.255-4.376.433-.451 1.239-.956 2.434-.956 1.198 0 1.972.493 2.436.985m-4.123 2.032c-.118.522-.21 1.671-.21 2.3 0 .626.092 1.778.21 2.301.209.882.701 1.611 1.688 1.611.554 0 1.316-.207 1.659-1.611.148-.612.224-1.346.224-2.301 0-1.107-.104-1.794-.224-2.3-.15-.583-.524-1.613-1.659-1.613-.297 0-1.33.089-1.688 1.613M98.924 17.844c.792 0 1.584 0 2.182.373.582.373 1.045 1.136 1.045 2.194 0 .866-.269 1.344-.478 1.598-.255.3-.643.537-1.046.674.479.118.852.372 1.121.643.583.582.717 1.269.717 1.882 0 1.389-.674 2.076-1.165 2.39-.718.463-1.54.493-2.332.493h-3.181V17.844m2.777 4.226c.403 0 1.031-.046 1.329-.257.36-.253.524-.85.524-1.238 0-.417-.164-.896-.478-1.134-.329-.256-.882-.256-1.21-.256h-1.24v2.885h1.075zm.285 4.676c.285 0 .809-.03 1.225-.299.583-.373.657-.928.657-1.36 0-.255-.044-.955-.597-1.36-.403-.297-.925-.312-1.403-.312h-1.24v3.331h1.358zM107.97 17.844v6.077c0 .448-.075.733-.119 1.24.312-.775.375-.896.403-.955l2.928-5.647v-.715h1.702v10.248h-1.702v-6.114c0-.266.044-.417.119-1.328-.328.717-.18.479-.479 1.048l-2.853 5.557v.838h-1.703V17.844M121.899 17.544v1.313h.074c.495 0 1.555.031 2.437.776.553.463 1.239 1.418 1.239 3.123 0 1.344-.404 2.346-.956 2.927-.747.793-1.749.974-2.794 1.001v1.509h-1.64v-1.509c-1.049-.027-2.051-.208-2.795-1.001-.555-.581-.957-1.583-.957-2.927 0-1.705.687-2.66 1.24-3.123.881-.745 1.941-.776 2.435-.776h.077v-1.313m.044 2.658h-.105c-.641 0-1.255.209-1.598.565-.523.541-.568 1.527-.568 2.004 0 1.017.178 1.839.866 2.271.463.283 1.136.313 1.405.299v-5.139zm1.551 5.14c.27.015.942-.016 1.405-.299.687-.433.866-1.255.866-2.271 0-.477-.044-1.463-.567-2.004-.12-.118-.583-.565-1.599-.565h-.105v5.139zM132.812 17.844v1.402h-4.167v2.852h3.269v1.405h-3.269v3.183h4.24v1.406h-5.945V17.844M136.508 17.844c1.075 0 2.15.057 2.941.85.479.478.822 1.271.822 2.315 0 .732-.209 1.552-.673 2.091-.79.942-2.062.985-3.046.985h-.896v4.005h-1.704V17.844m1.705 4.899h.851c.687 0 1.33-.016 1.702-.599.091-.15.269-.495.269-1.166 0-.359-.045-.882-.343-1.269-.388-.522-.928-.522-1.628-.522h-.851v3.556zM147.307 19.186h-4.183v2.839h1.748c.462 0 1.448.046 2.194.671.39.346.912 1.017.912 2.271 0 .823-.239 1.719-.732 2.287-.672.775-1.553.836-2.105.836h-3.721V17.844h5.887m-4.183 8.902h1.538c.449 0 .911-.18 1.165-.45.254-.267.418-.716.418-1.3 0-.252-.029-.82-.418-1.193-.269-.254-.776-.434-1.255-.434h-1.448v3.377zM155.229 17.844v1.402h-4.167v2.852h3.27v1.405h-3.27v3.183h4.244v1.406h-5.947V17.844M158.926 17.844c1.075 0 2.151.057 2.942.85.479.478.823 1.271.823 2.315 0 .732-.211 1.552-.672 2.091-.793.942-2.062.985-3.047.985h-.898v4.005h-1.701V17.844m1.701 4.899h.852c.688 0 1.331-.016 1.703-.599.091-.15.27-.495.27-1.166 0-.359-.046-.882-.343-1.269-.391-.522-.927-.522-1.63-.522h-.852v3.556zM4.819 30.848V3.863h3.71V.009H0v34.694h8.529v-3.855"/></g></svg>