<svg xmlns="http://www.w3.org/2000/svg" width="90.475" height="78.027" viewBox="0 0 90.475 78.027"><path fill="#231F20" d="M1.471 7.285l2.955-3.93c.534-.695.641-.958.702-1.097-.046.371-.062.851-.062 1.129v4.656h1.158V.156H5.066v.681L2.156 4.75c-.244.34-.488.665-.731 1.222.03-.572.047-.572.047-1.083V.156H.312v7.888H1.47l.001-.759zm11.193-.387c-.366.248-.959.34-1.417.34-.883 0-1.4-.324-1.69-.634-.123-.123-.352-.433-.443-.912l-1.128.232c.107.572.396 1.145.838 1.546.777.696 1.859.728 2.483.728.64 0 1.568-.047 2.284-.542.458-.31.976-.913.976-1.825 0-.558-.198-1.021-.487-1.331-.335-.355-.869-.572-1.326-.604v-.029c.457-.047.854-.247 1.098-.495.151-.155.503-.558.503-1.253 0-.558-.229-1.237-.96-1.687C12.847.093 12.069 0 11.415 0c-.96 0-1.539.217-1.812.355-.581.279-1.205.805-1.434 1.811l1.082.294c.091-.48.352-.82.595-1.022.456-.387 1.005-.479 1.446-.479.519 0 1.051.093 1.356.34.183.139.427.402.427.851 0 .402-.107.852-.67 1.114-.29.139-.762.201-1.082.201h-.869v.959h.869c.502 0 1.112.046 1.539.449.183.17.366.479.366.974 0 .526-.26.851-.564 1.051zm3.728 1.145h5.165v2.119h1.065V7.084h-.792V.156h-4.51l-.015.711c-.047 1.81-.107 3.355-.67 4.811a7.104 7.104 0 0 1-.731 1.407h-.579v3.078h1.066v-2.12zm1.204-2.072c.502-1.361.64-3.279.686-4.438l.015-.417h2.376v5.97h-3.564c.09-.188.334-.713.487-1.115zm10.416-2.8c-1.188 0-2.407.016-3.353.665a2.336 2.336 0 0 0-1.051 1.996c0 .818.366 1.36.701 1.67.381.354 1.005.696 1.996.696 1.827 0 2.499-1.176 2.712-1.624.015.387.046.896.137 1.469h1.219a7.71 7.71 0 0 1-.198-1.655V3.356c0-1.021-.015-2.104-.853-2.783C28.637.016 27.631 0 27.113 0c-1.691 0-2.956.464-3.291 2.149l1.112.187c.183-1.284 1.522-1.377 2.164-1.377.548 0 1.219.031 1.614.572.274.371.306.896.306 1.314v.325h-1.006zm1.006 1.346c0 .558-.213 1.284-.609 1.779a2.39 2.39 0 0 1-1.843.881c-.533 0-.899-.139-1.112-.294a1.253 1.253 0 0 1-.564-1.051c0-.402.151-.976.792-1.315.427-.231 1.127-.387 2.346-.387h.99v.387zm4.703 3.526h1.157V1.115h2.438V.156h-6.033v.959h2.438v6.928zm7.781.155c.747 0 1.387-.171 1.996-.589.655-.464 1.051-1.035 1.265-1.717l-1.128-.231a2.413 2.413 0 0 1-.472.835c-.273.31-.776.681-1.615.681-.944 0-1.646-.433-2.025-1.376a3.879 3.879 0 0 1-.259-1.531H44.9v-.279C44.9 2.722 44.428 0 41.533 0c-2.453 0-3.611 2.057-3.611 4.161 0 1.099.26 2.104.944 2.893.671.773 1.54 1.144 2.636 1.144zm-1.645-6.434c.351-.433.93-.805 1.69-.805.914 0 1.401.511 1.646.913.228.387.35.959.365 1.438h-4.235a2.74 2.74 0 0 1 .534-1.546zm7.964 4.624c.229-.696.365-1.748.487-5.273h2.498v6.929h1.157V.156h-4.677l-.016.882c-.076 3.975-.244 4.749-.473 5.166-.29.541-.822.804-1.173.819h-.122v1.021h.062c.535-.001 1.738-.125 2.257-1.656zm11.696 1.114c.562-.495.775-1.146.775-1.903 0-.942-.364-1.469-.624-1.731-.549-.541-1.311-.604-1.92-.604h-2.163V.156h-1.157v7.888h3.52c.457-.001 1.036-.063 1.569-.542zm-3.931-.418V4.223h1.858c.305 0 .762.062 1.052.248.243.17.519.495.519 1.114 0 .525-.198.928-.474 1.175-.381.325-.807.325-1.143.325l-1.812-.001zm9.213 1.114c.839 0 1.555-.264 2.104-.836.44-.464.776-1.159.884-1.917l-1.097-.2c-.062.447-.229.928-.503 1.283-.352.449-.777.649-1.356.649-.762 0-1.219-.402-1.478-.789-.093-.124-.503-.772-.503-2.258 0-.634.075-1.531.503-2.228.335-.557.821-.882 1.493-.882.762 0 1.202.388 1.417.696.196.294.364.758.427 1.191l1.097-.201c-.092-.572-.351-1.299-.792-1.811C66.445.263 65.729 0 64.875 0c-1.249 0-2.025.542-2.56 1.284-.579.819-.809 1.778-.809 2.831 0 1.33.396 2.599 1.158 3.31.46.417 1.16.773 2.135.773zm5.877-.155h1.157V1.115h2.438V.156h-6.033v.959h2.438v6.928zm9.381-4.191V3.82c.549-.093.884-.387 1.006-.494.366-.341.519-.789.519-1.315 0-.913-.533-1.346-.823-1.516-.518-.311-1.188-.341-1.812-.341h-3.443v7.889h3.824c.624 0 1.295-.016 1.889-.479.504-.401.809-1.021.809-1.748 0-.758-.365-1.19-.519-1.346-.322-.324-.885-.572-1.45-.618zM76.66 1.115h2.271c.351 0 .716 0 1.035.277.274.232.336.511.336.758 0 .356-.106.682-.306.897-.335.371-.808.402-1.173.402H76.66V1.115zm3.657 5.583c-.244.231-.655.387-1.219.387H76.66V4.408h2.331c.29 0 .839.03 1.219.324.185.141.474.449.474 1.007-.002.355-.124.726-.367.959zM86.969 0c-2.012 0-3.505 1.516-3.505 4.099s1.493 4.1 3.505 4.1 3.505-1.517 3.505-4.1S88.981 0 86.969 0zm0 7.177c-.93 0-2.163-.495-2.163-3.078s1.233-3.078 2.163-3.078 2.163.495 2.163 3.078-1.233 3.078-2.163 3.078zM12.741 30.882V16.115H9.329l-2.932 10.65-2.867-10.65H-.009v14.767h2.011V18.267l3.353 12.615h1.714l3.412-12.593v12.593h2.26zm8.174-14.767h-2.68L14.09 30.879h2.286l.876-3.704h4.188l.9 3.704h2.428l-3.853-14.764zm-3.179 9.123l1.609-6.735 1.633 6.735h-3.242zm17.457 5.644V16.115h-2.385v6.129h-4.23v-6.129h-2.385v14.767h2.385V24.27h4.23v6.612h2.385zm4.857-6.612h4.227v6.612h2.389V16.115h-2.389v6.129H40.05v-6.129h-2.385v14.767h2.385V24.27zm9.906 9.729l1.591-3.248v-2.649H49.14v2.777h1.107l-1.318 3.12h1.027zM6.95 40.145l-4.104 8.139c-.04.086-.125.259-.565 1.376.063-.729.168-1.143.168-1.787v-8.756H.062v14.766h2.386v-1.207l3.999-8.007c.417-.821.209-.478.671-1.511-.106 1.312-.168 1.531-.168 1.913v8.812h2.387V39.115H6.95v1.03zm12.58 13.022c.691-.45 1.633-1.442 1.633-3.442 0-.885-.185-1.873-1.004-2.712a3.296 3.296 0 0 0-1.568-.926c.564-.197 1.107-.539 1.465-.972.293-.365.67-1.055.67-2.302 0-1.525-.648-2.625-1.464-3.163-.84-.536-1.947-.536-3.058-.536h-4.396v14.763h4.459c1.108.001 2.261-.042 3.263-.71zm-5.338-12.119h1.74c.458 0 1.235 0 1.694.369.438.343.669 1.032.669 1.633 0 .56-.232 1.42-.732 1.784-.419.304-1.297.37-1.863.37h-1.508v-4.156zm0 10.895v-4.801h1.74c.668 0 1.4.021 1.965.448.773.585.837 1.595.837 1.961 0 .624-.104 1.423-.921 1.961-.584.387-1.317.431-1.716.431h-1.905zm10.907-1.768h4.186l.901 3.703h2.429l-3.853-14.763h-2.681l-4.146 14.763h2.284l.88-3.703zm2.092-8.673l1.633 6.735h-3.242l1.609-6.735zm15.851 12.379V39.115h-2.389v6.128h-4.229v-6.128h-2.387v14.766h2.387v-6.612h4.229v6.612h2.389zm3.718-13.669c-1.593 1.676-1.759 4.883-1.759 6.305 0 4.067 1.234 5.683 1.759 6.241.774.818 1.969 1.396 3.41 1.396 1.653 0 2.786-.745 3.413-1.414 1.612-1.724 1.738-5.018 1.738-6.244 0-1.271-.126-4.479-1.738-6.241-.649-.709-1.734-1.419-3.413-1.419-1.673-.002-2.804.726-3.41 1.376zm5.736 2.97c.167.729.313 1.718.313 3.312 0 1.377-.105 2.435-.313 3.314-.479 2.024-1.549 2.322-2.325 2.322-1.382 0-2.071-1.052-2.364-2.322-.165-.753-.294-2.412-.294-3.314 0-.905.129-2.562.294-3.312.503-2.197 1.948-2.325 2.364-2.325 1.589 0 2.114 1.485 2.325 2.325zm13.066 1.934c.293-.365.67-1.055.67-2.302 0-1.525-.649-2.625-1.465-3.163-.837-.536-1.947-.536-3.059-.536h-4.396v14.763h4.458c1.108 0 2.262-.043 3.268-.711.688-.45 1.633-1.442 1.633-3.442 0-.885-.188-1.873-1.004-2.712a3.328 3.328 0 0 0-1.57-.926c.565-.197 1.109-.539 1.465-.971zm-5.861-4.068h1.738c.46 0 1.233 0 1.694.369.439.343.671 1.032.671 1.633 0 .56-.23 1.42-.735 1.784-.417.304-1.297.37-1.862.37h-1.506v-4.156zm4.541 8.503c0 .624-.104 1.423-.921 1.961-.583.387-1.316.431-1.716.431h-1.904v-4.801h1.738c.671 0 1.4.021 1.967.448.774.585.836 1.595.836 1.961zM6.888 64.145l-4.104 8.139c-.04.086-.127.259-.564 1.376.062-.729.167-1.143.167-1.787v-8.757H0v14.767h2.388v-1.207l3.997-8.007c.419-.821.211-.478.671-1.511-.105 1.312-.167 1.531-.167 1.913v8.812h2.385V63.115H6.888v1.03zm18.538 1.55c-1.235-1.073-2.721-1.118-3.414-1.118h-.104v-1.894H19.61v1.894h-.108c-.69 0-2.177.045-3.412 1.118-.775.666-1.737 2.043-1.737 4.499 0 1.938.563 3.381 1.341 4.219 1.043 1.143 2.447 1.401 3.917 1.44v2.175h2.297v-2.175c1.464-.039 2.869-.299 3.916-1.44.773-.838 1.34-2.28 1.34-4.219-.001-2.456-.963-3.833-1.738-4.499zm-5.756 8.223c-.378.021-1.32-.022-1.969-.431-.965-.623-1.214-1.809-1.214-3.273 0-.688.062-2.106.796-2.887.48-.514 1.341-.814 2.239-.814h.147v7.405zm4.144-.428c-.649.406-1.592.45-1.97.43v-7.405h.147c1.423 0 2.072.645 2.24.814.733.779.795 2.199.795 2.887.002 1.464-.25 2.649-1.212 3.274zm7.546-2.221h4.582v-2.024H31.36v-4.108h5.84v-2.021h-8.228v14.767h8.331v-2.026H31.36v-4.588zm11.02-8.154H38.8v14.764h2.389v-5.771h1.255c1.379 0 3.162-.062 4.269-1.42.65-.774.943-1.957.943-3.011 0-1.507-.48-2.649-1.153-3.338-1.109-1.141-2.616-1.224-4.123-1.224zm2.386 6.197c-.521.84-1.424.862-2.387.862h-1.191v-5.123h1.191c.981 0 1.738 0 2.282.752.417.558.48 1.312.48 1.829.001.966-.248 1.463-.375 1.68zm12.411.794c-1.046-.9-2.429-.968-3.074-.968h-2.45v-4.09h5.861v-1.934h-8.249v14.764h5.214c.773 0 2.009-.087 2.95-1.204.69-.819 1.025-2.109 1.025-3.295.001-1.808-.731-2.775-1.277-3.273zm-1.737 5.187c-.355.391-1.003.648-1.633.648h-2.155v-4.865h2.029c.671 0 1.383.259 1.759.625.545.537.586 1.354.586 1.72 0 .841-.23 1.488-.586 1.872zm7.336-4.024h4.583v-2.024h-4.583v-4.108h5.841v-2.021H60.39v14.767h8.333v-2.026h-5.947v-4.588zm11.02-8.154H70.22v14.764h2.384v-5.771h1.259c1.38 0 3.159-.062 4.27-1.42.646-.774.942-1.957.942-3.011 0-1.507-.482-2.649-1.154-3.338-1.11-1.141-2.618-1.224-4.125-1.224zm2.387 6.197c-.521.84-1.422.862-2.388.862h-1.192v-5.123h1.192c.985 0 1.736 0 2.284.752.416.558.48 1.312.48 1.829.002.966-.249 1.463-.376 1.68z"/></svg>