<svg id="Слой_1" data-name="Слой 1" xmlns="http://www.w3.org/2000/svg" viewBox="0 0 160.09 135.09"><defs><style>.cls-1,.cls-3{fill:#72b9c9}.cls-2,.cls-7{fill:#5b94a4}.cls-3{stroke:#72b9c9;stroke-miterlimit:10}.cls-10,.cls-4,.cls-8,.cls-9{fill:#fff}.cls-5{fill:#33322e}.cls-6{fill:#e5e5e5}.cls-7{opacity:.6}.cls-8{opacity:.8}.cls-9{opacity:.9}.cls-10{opacity:.7}</style></defs><title>ribcus</title><g id="rubkus"><path class="cls-1" d="M603 1068.94a.86.86 0 0 0-1.18-.68c-1.22.49-2.87.95-3.65 2.1a.94.94 0 0 0-.14.34l-1 .51a.88.88 0 0 0-.87-.14c-1.9.61-4.13 1.14-5.73 2.38a.86.86 0 0 0 .12 1.44l-1.09.56a18.38 18.38 0 0 0-5.68 2.64.83.83 0 0 0-.19 1.13c-1 .42-2.06.86-3 1.35a.91.91 0 0 0-.4.37h-.36c-1.12 0-.87 1.77.24 1.73a16.54 16.54 0 0 0 9.31-3.52 1 1 0 0 0 .33-.81 22.12 22.12 0 0 0 3-2.12.88.88 0 0 0 .33-.62l1.09-.49a.73.73 0 0 0 1 .26c2.17-1 4.16-2.43 6.4-3.35a.81.81 0 0 0 .51-.7c.42-.29.83-.59 1.22-.9a.88.88 0 0 0-.26-1.48z" transform="translate(-515.71 -1046.35)"/><path class="cls-2" d="M620.64 1165.12a1.1 1.1 0 0 0-.43-1.12.82.82 0 0 0-.6-.36 33.56 33.56 0 0 0-4.29-.37c-2.62.21-5 1.5-7.66 1.51a1 1 0 0 0-.8.41l-.39-.24a.78.78 0 0 0-.61-.35h-.12a.88.88 0 0 0-.63 1.56 10.74 10.74 0 0 1 4.3 4.28c1 1.62 2.09 3.11 3.21 4.63 1.46 2 2.54 4.52 4.37 6.21a.88.88 0 0 0 1.06 0 1.65 1.65 0 0 0 .63-1.45 34.36 34.36 0 0 0 .33-4.46v-.1a.94.94 0 0 0 0-.22v-.05a43.66 43.66 0 0 1 1.63-9.88zm-3.58 13h.14v.64l-.42-.61a.7.7 0 0 0 .28-.01z" transform="translate(-515.71 -1046.35)"/><path class="cls-3" d="M675.1 1126.65c-2.63-7.22-3.43-13.49-5.74-21.64s-2.85-10.33-8.54-19.9-17.06-16.79-27.29-21.41a81 81 0 0 0-9.63-3c-.26 0-.52-.1-.79-.14-3-.42-6.1-.17-9.15-.41-9.61 1.08-18.85 6-27.08 10.73-10 5.78-20.42 12.7-25 23.79-5.32 13-1 28.27-6.83 41.05v1.28a1.51 1.51 0 0 1-.71 1.34c-.47 2.46-.93 5-1.25 7.48.3 3.47.51 6.95.48 10.43 1.61.31 3.22.63 4.82 1a41 41 0 0 1 7.56 2.3c1.4.62 2.75 1.35 4.11 2.06 2.32.43 4.65.78 7 1.12 4.58.65 9.18 1.31 13.79 1.82l.67.23a13.11 13.11 0 0 0 5.24.33 98.83 98.83 0 0 0 18.64-.13 54.23 54.23 0 0 1 8.37-.53 3.21 3.21 0 0 1 1.52-.35c2.21 0 4.47.11 6.75.17a39.68 39.68 0 0 1 6.8-1.53c2.35-.4 4.73-.74 7.12-1a25.67 25.67 0 0 0 3-2.19c7.31-6.29 11.09-16.87 11.28-26.55.6 0 1.21-.06 1.81-.13a.74.74 0 0 0 .31.11 5.5 5.5 0 0 0 2.15-.43c1.6-.49 3.24-.51 4.83-.94 1.15-.31 2.47-.62 3.68-1.06a3.37 3.37 0 0 0 .51-.19 9.14 9.14 0 0 0 1.17-.57.68.68 0 0 0 .32-.87 2.81 2.81 0 0 0 .08-2.27zm-71.5-57c-.79.55-1.59 1.08-2.42 1.58-3.78 2.28-7.85 4-11.55 6.47-2.14 1.4-4.36 2.78-6.55 4.19a4.74 4.74 0 0 0-1.78-.7c.78-.54 1.57-1.08 2.36-1.59 6.63-4.33 13.63-8.6 21.14-11.22a15.65 15.65 0 0 0-1.2 1.26z" transform="translate(-515.71 -1046.35)"/><path class="cls-2" d="M659.86 1132.79c-2.89-1.13-6.3 1.74-9 2.07a96.17 96.17 0 0 1-12.45.59c-1.41 0-2.77-.21-4.19-.18-2.42 0-4.38-1-6.69-1.55a15.21 15.21 0 0 1-4.66-1.56 37.23 37.23 0 0 0-4.58-2.49 1.17 1.17 0 0 0-1.5 1.53l.12.22a1.19 1.19 0 0 0 1 .63c2.83 1.36 5.11 3 8.28 3.71 1.89.45 3.7 1.41 5.61 1.75 1.6.28 3.31 0 4.92.16 3.77.29 7.61-.2 11.4-.31a17.91 17.91 0 0 0 5.37-.62c1.53-.53 4-2.4 5.57-1.77a1.16 1.16 0 0 0 .8-2.18zM609.81 1060.84a2.26 2.26 0 0 0-.91-1.24c-1.17-1.21-2.46-2.42-3.7-3.58s-2.39-1.91-3.47-3-1.91-2.38-2.91-3.59c-1.55-1.87-3.71-4.32-6.17-2.36s-2.91 5.91-3.64 8.69c-.39 1.45-2.35 6.67-2.8 10.68l-.25-.29a1.34 1.34 0 0 0-.53-.66 15.34 15.34 0 0 0-1.53-1.7 2.25 2.25 0 0 0-1.51-1.26 9.88 9.88 0 0 1-2-2c-.65-.93-.89-2-1.49-3s-1.43-1.59-2-2.5c-.7-1.06-1.9-3.1-3.22-3a1.25 1.25 0 0 0-1.61.61c-1.05 2.26-.67 5.06-1 7.47a60.32 60.32 0 0 0-.48 8.19c0 2.47.21 5 .24 7.44l-.29-.12c-1.16-.47-2.37-1.18-3.55-1.55a11.8 11.8 0 0 0-3.07-.12c-2.2-.12-11.1-3.23-10.23 1.67a25.92 25.92 0 0 0 1.52 3.73 50.45 50.45 0 0 0 1.89 5c1.45 3 2.08 6.66 2.91 10a7.36 7.36 0 0 1 .56 1.54 1.34 1.34 0 0 0 1 .44 11.82 11.82 0 0 1 .76-2.14 2.73 2.73 0 0 1 1.09-2l.17-.14a20.13 20.13 0 0 1 1.87-2.33 2.83 2.83 0 0 1 .82-.61 26.58 26.58 0 0 1 3.15-4.43 77.23 77.23 0 0 1 11.33-10 68.06 68.06 0 0 1 13.71-7.46l1.74-.79a32.17 32.17 0 0 1 4.77-2.27l.84-.4c2.31-1.08 4.93-1.09 7.17-2.29a3.74 3.74 0 0 1 .83-.33 1.22 1.22 0 0 0-.01-.3zM558.46 1081l-.28-.67a1.16 1.16 0 0 0 .54.2 2.43 2.43 0 0 0 .12.23 1 1 0 0 0-.38.24zM594.94 1164l-.25-.12a1.17 1.17 0 0 0-1.35.38 1 1 0 0 0-.91-.7c-1.95-.17-3.93.14-5.92 0a16 16 0 0 1-6.73-1.82 1.17 1.17 0 0 0-1.58.95c-.07 2.54.86 5.18 1.3 7.67.47 2.66.66 5.36 1.09 8a1.18 1.18 0 0 0 1 1c2.3 0 4.6-2.35 6-3.93a88 88 0 0 0 7.17-9.16 1.23 1.23 0 0 0 .18-2.27zm-12.3 12.23a1.2 1.2 0 0 0 .45-.22 1.24 1.24 0 0 0 .24.29 6.94 6.94 0 0 1-.62.43c-.02-.17-.05-.34-.07-.5z" transform="translate(-515.71 -1046.35)"/><path class="cls-4" d="M635.07 1094.54a1 1 0 0 0 0-.1c.36-1.55-1.62-2.66-2.84-3.09l-.49-.16a3 3 0 0 0-2.47-.49 4.14 4.14 0 0 0-2 .36l-.15.1a3.56 3.56 0 0 0-.58.26 15.28 15.28 0 0 0-4.38 1.61 9.86 9.86 0 0 0-5.09 5.73 29.66 29.66 0 0 0-.41 11.73c.45 3.08 2.55 5 5.36 6.15 5.4 2.17 13.18-2 14.56-7.64.93-3.57 1.25-10.75-1.51-14.46zm-14.19 2.39a11.56 11.56 0 0 1 6.54-3.31 18.19 18.19 0 0 1 3-.15 1.27 1.27 0 0 0 .19.71 2.69 2.69 0 0 0-3.06 0 6.57 6.57 0 0 0-4.8 1.65 10.68 10.68 0 0 0-2.05 3.16 13.26 13.26 0 0 0-.58 1.71 1.49 1.49 0 0 0-.34.14 2.68 2.68 0 0 0-.8.73 7.72 7.72 0 0 1 1.9-4.64zm5.22.24l-.26.29a1.27 1.27 0 0 0-1.23.12 4.32 4.32 0 0 0-1.4 1.71h-.05a4.66 4.66 0 0 1 2.76-2.41l.08.12zm7.75 12.75c-2.5 4.44-10 7-13.71 2.77a7.41 7.41 0 0 1-1.46-4.53 4.18 4.18 0 0 0 1.3 2.6 1.05 1.05 0 0 0 .3.17 1.9 1.9 0 0 0 .89.64 1.32 1.32 0 0 0 .61 0 10.54 10.54 0 0 0 .31 1.15 1.16 1.16 0 0 0 1.23.7 2.65 2.65 0 0 0 1.82-1.55 2.43 2.43 0 0 0 .83.83 1.18 1.18 0 0 0 1.63-.23 8.67 8.67 0 0 0 .42-.81 1.39 1.39 0 0 0 .79-.6 1.19 1.19 0 0 0 1.86 0 6.87 6.87 0 0 0 .93-1.88 1.23 1.23 0 0 0 .45-.17c1.77-1.18 2.47-5.42 1.57-7.81.11-.5.22-1 .31-1.5a1 1 0 0 0 .52-.43 21 21 0 0 1 .38 3.5c.05 2.23.11 5.23-.97 7.15zM662.24 1098.89v-.09a6.76 6.76 0 0 0-.16-2.64 13.2 13.2 0 0 0-2.31-3.82 12.2 12.2 0 0 0-2.43-2.69 3.56 3.56 0 0 0-1.26-1 2.43 2.43 0 0 0-.52-.18.88.88 0 0 0-.67-.28c-6.53-.06-13 3.41-14.61 10.11-.77 3.3-1.34 7.62 1.05 10.41 2.15 2.51 5.72 3.26 8.81 3.88 1.84.37 2.87-.11 4.52-.77a13.81 13.81 0 0 0 4-1.83c2.68-2.17 3.36-5.29 3.39-8.53a7.16 7.16 0 0 0 .19-2.57z" transform="translate(-515.71 -1046.35)"/><path class="cls-4" d="M636.59 1103.58a7.54 7.54 0 0 0-2.41-5.56c.49-3.45-4.1-6.47-7.41-4.33-1.06.32-2.47.27-3.71.58a6.69 6.69 0 0 0-5.27 5.27c-.22 1 .09 2.21-.08 3s-.94 1.47-1.24 2.21a7.84 7.84 0 0 0 .75 7.58c2.8 4 8.3 5.38 12.24 2.42a4.13 4.13 0 0 0 3.36-1c2.66-2.24 3.87-6.85 3.77-10.17z" transform="translate(-515.71 -1046.35)"/><path class="cls-5" d="M657.36 1099.28c-.24-2.07-2.68-4.42-4.85-4.27a1.42 1.42 0 0 0-1.1-.15 3.17 3.17 0 0 0-1.79-.53 6.51 6.51 0 0 0-2.22.64c-1.52.76-2.51 3.1-2.88 4.65a6.75 6.75 0 0 0 1.38 5.28 5.61 5.61 0 0 0 4.81 2.39c3.39.13 7.02-4.84 6.65-8.01zM631.23 1099.57c-.76-1.39-2.37-1.89-3.82-2.26a1.21 1.21 0 0 0-1 .17 5.19 5.19 0 0 0-2.18.84 5.89 5.89 0 0 0-2.71 3.74c-.59 2.55.51 6.52 3.52 7 2.69.4 6.51-1.49 6.86-4.43a9 9 0 0 0-.67-5.06z" transform="translate(-515.71 -1046.35)"/><path class="cls-6" d="M652.06 1096.2a1 1 0 0 0-.23-.49v-.11a.27.27 0 0 0-.15-.36.66.66 0 0 0-.31 0 1.82 1.82 0 0 0-1.52-.12.83.83 0 0 0-.43 1.15 1.23 1.23 0 0 0 .25.66 1.52 1.52 0 0 0 1 .54 1.19 1.19 0 0 0 1.39-1.27zM628.26 1098.08a1.31 1.31 0 0 0-.14-.15 1.1 1.1 0 0 0-.63-.26.29.29 0 0 0-.31 0l-.3.06h-.07a1.15 1.15 0 0 0-.79.47 1.25 1.25 0 0 0 .81 1.84 1.39 1.39 0 0 0 .91 0 1.06 1.06 0 0 0 1.1-1.14 1.22 1.22 0 0 0-.58-.82zM648.49 1099.88v-.08c0-.37-.57-.44-.58-.07a2.2 2.2 0 0 0 0 .64.3.3 0 0 0 .25.25.42.42 0 0 0 .47-.51.23.23 0 0 0-.14-.23zM624.71 1102.19a1 1 0 0 1-.25-.84c0-.37-.57-.44-.58-.07 0 .61.12 1.52.91 1.48.37-.01.29-.58-.08-.57z" transform="translate(-515.71 -1046.35)"/><path class="cls-1" d="M574.16 1158.21c-.52 0-1-.09-1.55-.16-1.08-1.25-3-1.38-4.58-1.62l-.3-.14q-2.22-.86-4.5-1.52c-1.24-.36-2.61-.87-4-1.24a2.1 2.1 0 0 0-.21-1.37c.21-.87.36-1.74.54-2.51.85-3.58.39-7.37.67-11a89.29 89.29 0 0 0 0-13.5 1.75 1.75 0 0 0-.2-.71 15.13 15.13 0 0 0 1-4.66 1.2 1.2 0 0 0-.28-.81 8.28 8.28 0 0 0 .18-2 1.17 1.17 0 0 0-2.08-.54 11.91 11.91 0 0 0-1.17 4.1l-.46 1c-.54 1.05-1 2.14-1.49 3.23-1.3 1.37-2.33 3.46-3.26 4.62a13.62 13.62 0 0 0-1.65 2.67 30.13 30.13 0 0 0-3.32-2.23 68 68 0 0 1-7.73-6.81c-2.44-2.46-4.62-5.15-6.83-7.82-1.18-1.43-3.11-3.75-5.15-3.16a1.16 1.16 0 0 0-.7 1.23v.13a2.17 2.17 0 0 0 .16.86l.07.14a9 9 0 0 0 .38 1.5 2.22 2.22 0 0 0 0 .45 64 64 0 0 0 2.53 11c.61 1.78 1.31 3.81 2.17 5.75-2.33-1.14-4.66-2.32-6.86-3.67a67.15 67.15 0 0 0-7.37-4.21l-.14-.07a2.2 2.2 0 0 0-.76-.49 1.17 1.17 0 0 0-1.51.65c-.58 2 .9 4.17 2.34 6.07a38.73 38.73 0 0 0 3.45 5.68c1.79 2.8 3.48 5.6 6.29 7.52a98.77 98.77 0 0 0 8.4 5.59c3.51 1.92 7.15 3.55 10.65 5.46a16.08 16.08 0 0 0 2.54 1.11 1.24 1.24 0 0 0 .41.17c1.64.35 3.25.81 4.86 1.27a1 1 0 0 0 .41.22l.29.07h.07q.94.24 1.89.43l.4.11.29.08a.94.94 0 0 0 .37 0c1.41.24 2.83.42 4.23.55h.35c.69.21 1.38.42 2 .64a32 32 0 0 0 8.36 1.94H573.66c2.61.13 3.14-3.84.5-4zM623.9 1060.68l-.55-.1c-.4 1.74-1.73 3.47-2.51 5.07a21 21 0 0 1-3.77 4.91c-.77.82.63 1.86 1.39 1a21.14 21.14 0 0 0 4-5.31 39.73 39.73 0 0 0 2.47-5 .85.85 0 0 0 .23-.29z" transform="translate(-515.71 -1046.35)"/><path class="cls-7" d="M630.71 1062.16a12.89 12.89 0 0 1-3.18 4 15.64 15.64 0 0 0-3 2.87c-.69 1-1 2.21-1.62 3.26a16.49 16.49 0 0 1-3.24 3.38 29.58 29.58 0 0 0-3.15 3.62c-1.21 1.51-2.7 2.72-3.48 4.49a32.86 32.86 0 0 1-2.95 5.71 56.22 56.22 0 0 0-2.77 5c-2.24 4-4.22 8.09-6.7 12-1.86 2.92-2.32 6.66-3 9.94a54.94 54.94 0 0 0-.92 6.1c-.23 2.27-.9 4.51-.9 6.79 0 3.69.51 7.47.74 11.16.25 4 1.33 8 2 12a58.94 58.94 0 0 0 2.08 7.71c.57 1.89 2 3.32 2.55 5.14.35 1.08 2.07.39 1.72-.67-.55-1.7-1.89-3-2.43-4.71-.68-2.24-1.38-4.52-1.88-6.79-.71-3.2-1.25-6.51-1.75-9.75-.55-3.5-.47-7-.78-10.52a51.43 51.43 0 0 1 .79-12.64 55.81 55.81 0 0 1 2.51-10.92c.72-1.89 2.07-3.48 3.07-5.25 1.14-2 1.86-4.19 3-6.18 1.85-3.31 3.93-6.43 5.79-9.73.9-1.6 1.28-3.63 2.41-5.1s2.58-3 3.82-4.39 3.06-2.73 4.34-4.32c1.42-1.77 1.87-3.95 3.52-5.55 1.3-1.27 2.9-2.23 4-3.71a15.25 15.25 0 0 0 1.31-2.19v-.09q-1-.35-1.9-.66z" transform="translate(-515.71 -1046.35)"/><path class="cls-7" d="M625.06 1060.61c-.64-.14-1.29-.27-1.94-.38s-1.32 0-2-.09a12.27 12.27 0 0 0-1.15 1.34 51.66 51.66 0 0 1-4.47 4.81c-3.61 3.48-6.21 7.4-9.26 11.25a85.16 85.16 0 0 0-13.65 24.7 79.53 79.53 0 0 0-3.51 15.51 88.48 88.48 0 0 0-1.24 15.33c.17 5.48 1.94 10.36 3.38 15.59 1.1 4 2 8.29 3.84 12.11a.87.87 0 0 0-.15 1.14 7.89 7.89 0 0 1 1.34 3 1 1 0 0 0 1.28.68c1.25-.52 1.33-1.22 3.07-1.54.76-.14 1.43.23 2.24-.11a1.75 1.75 0 0 0 .89-2.68c-1-1.93-3.74-2.71-5.54-3.79-1.26-.75-.92-.33-.6-1.82.1-.49.17-1 .27-1.46.23-1.14 1.14-2.44 1.13-3.57 0-1.46-1.81-2.69-2.91-3.52-.54-.4-2.5-1.07-2.84-1.48-.67-.82 1.07-3.36 1.64-4.18 1-1.51 2.22-2.64 1.3-4.48a5.31 5.31 0 0 0-1.86-1.94c-1.24-.79-4-1-3.12-2.95 1.08-2.41 8.52-5.36 5-8.21-.94-.76-2.67-1.38-3.13-2.54-1.56-3.92 2-2.48 3.57-3.57 1-.71 1-1.55.53-2.57-.94-2.24-4.26-7.14-1.76-9 1.55-1.18 3.9-.27 5.49-1.34 1-.65.91-1.24.55-2.19-1-2.56-5.35-7 .09-7.58 1.76-.2 8 .2 5.85-3-.85-1.24-1.94-2.3-2.75-3.59-.94-1.49-1.65-2.22.38-2.79 2.43-.69 5.92.19 8.1-1.27a.86.86 0 0 0 .29-1c-.45-1.28-1.14-2.48-1.62-3.77a13.13 13.13 0 0 1-.88-2.06c.12-.68.8-.4 1.55-.5a20.85 20.85 0 0 0 8.18-2.65.9.9 0 0 0 .28-1.3 14.89 14.89 0 0 1-2.14-3.75c-.36-.92-1-1.48 0-1.9 1.26-.56 3.39.1 4.79.1a35 35 0 0 0 5-.27.87.87 0 0 0 .43-1.56c-1.44-1.24-3.48-3.3-3.94-5.16zm-23.14 101.2c0 .64-2.59.42-3.07.59a2.68 2.68 0 0 0-1.14.88q-.09-.24-.19-.47a.91.91 0 0 0 .27-.5v-.24a.73.73 0 0 0-.46-.85 27.43 27.43 0 0 1-1.21-2.61l.1.06c.66.38 5.65 2 5.69 3.15zm-5.25-11.6c.67 1.62-1 4-1.38 6.08-.88-2.61-1.53-5.31-2.21-7.87-.09-.33-.18-.65-.27-1 1.41.73 3.19 1.25 3.85 2.8zm-3.26-9.82c-.36.85-1.19 1.89-1.77 3a43.35 43.35 0 0 1-1.79-8.71c2.07 2.13 5.55 1.04 3.55 5.71zm1.4-15.33c1 1.76-3.29 3.65-5.08 5.93a75.24 75.24 0 0 1 .86-10.62 2.6 2.6 0 0 0 0 .28 5 5 0 0 0 1 1.73c.73.95 2.68 1.79 3.21 2.69zm-.1-10.41c.33 1.28.89.44.19 1.45s-1.4.38-2.25.75a3.6 3.6 0 0 0-1.81 1.85c.51-3.28 1-6.52 1.75-9.72.25.72.6 1.43.84 2.11.4 1.18.96 2.38 1.27 3.56zm4.26-12.21c.83 1.21.88 1-.76 1.22a9.91 9.91 0 0 0-4.57 1.39c.18-.57.36-1.15.56-1.72.77-2.21 1.6-4.47 2.55-6.68a10.25 10.25 0 0 0 .95 2.78 15.45 15.45 0 0 0 1.3 3.02zm4.79-11.94a21.81 21.81 0 0 1 2 2.46c-.09.32-2.82.32-3.09.32-2 0-3.48 0-5 1.31.61-1.28 1.26-2.54 2-3.74s1.44-2.39 2.17-3.57a15.91 15.91 0 0 0 1.91 3.22zm7.65-7.24c-1.76.58-5.17.13-7.46.69.9-1.39 1.82-2.77 2.8-4.13q1-1.34 1.93-2.66a7.82 7.82 0 0 0 .5 1c.75 1.65 1.57 3.41 2.22 5.11zm7.48-9.93a24.2 24.2 0 0 1-7.22 2 15.18 15.18 0 0 0-1.78.18c1.61-2.13 3.29-4.2 5.13-6.19.36-.39.73-.76 1.1-1.12.2.44.52.88.74 1.34a27.78 27.78 0 0 0 2.02 3.8zm1.22-7.76h-1.3c.18-.19.37-.37.54-.56.66-.72 2.5-3.85 3.6-4a1 1 0 0 0 .29-.08 10.87 10.87 0 0 0 3.06 4.68c-2.07.16-4.12-.04-6.2-.03z" transform="translate(-515.71 -1046.35)"/><path class="cls-8" d="M622.67 1078.35a.83.83 0 0 0-.28.1.63.63 0 0 0-.19-.06.29.29 0 0 0-.3.18.45.45 0 0 0 .23.59.29.29 0 0 0 .58 0 .86.86 0 0 0 0-.22c.41-.08.29-.66-.04-.59z" transform="translate(-515.71 -1046.35)"/><path class="cls-9" d="M645.93 1155.68l-.23.05a.29.29 0 0 0-.23.18v.07a.27.27 0 0 0-.35.24.47.47 0 0 0 .55.58.31.31 0 0 0 .25-.25l.07-.29c.38-.09.3-.67-.06-.58zM607.92 1142.6h-.29c-.37 0-.44.58-.07.58h.29c.37-.01.44-.58.07-.58zM571.37 1097l-.12-.05a.26.26 0 0 0-.24-.26h-.18a.29.29 0 0 0-.26.47 1.16 1.16 0 0 0 .59.4.29.29 0 0 0 .21-.56z" transform="translate(-515.71 -1046.35)"/><path class="cls-10" d="M576.23 1159.46a1 1 0 0 0-1 .42.29.29 0 0 0 .27.46h.4a.32.32 0 0 0 .31-.29c.32.03.38-.52.02-.59z" transform="translate(-515.71 -1046.35)"/><path class="cls-9" d="M669.84 1126.61c-.37 0-.44.58-.07.58s.44-.58.07-.58z" transform="translate(-515.71 -1046.35)"/><path class="cls-2" d="M540.78 1135.2v.88c0 .42.66.5.66.08v-.88c0-.43-.66-.51-.66-.08zM565.41 1149c-.42 0-.5.66-.08.66s.51-.66.08-.66zM574.23 1135.79c-.42 0-.5.66-.08.66s.51-.66.08-.66z" transform="translate(-515.71 -1046.35)"/><path class="cls-4" d="M617.45 1148.87l-.33.33c-.3.3.1.82.4.52l.33-.33c.3-.29-.1-.82-.4-.52zM555.57 1143.53l-1.32-.66c-.38-.19-.62.43-.24.62l1.32.66c.38.19.62-.43.24-.62zM583.94 1154.76c-.42 0-.5.66-.08.66s.51-.66.08-.66zM594.53 1107.12c-.42 0-.5.66-.08.66s.55-.66.08-.66zM592.54 1056.16h-.66c-.42 0-.5.66-.08.66h.66c.42 0 .54-.66.08-.66zM594.53 1124.32c-.42 0-.5.66-.08.66s.55-.66.08-.66zM642.17 1080c-.42 0-.5.66-.08.66s.5-.66.08-.66zM572.29 1116.58l-.66-1.32c-.19-.38-.8-.13-.61.26l.66 1.32c.19.37.81.16.61-.26z" transform="translate(-515.71 -1046.35)"/></g></svg>